<svg width="480" height="270" viewBox="0 0 480 270" fill="none" xmlns="http://www.w3.org/2000/svg">
<rect x="193.582" y="44.9998" width="8" height="2" rx="1" transform="rotate(16.9155 193.582 44.9998)" fill="#40BF9C"/>
<rect x="200.879" y="31.4641" width="8" height="2" rx="1" transform="rotate(45 200.879 31.4641)" fill="#40BF9C"/>
<rect x="215.94" y="24.9998" width="8" height="2" rx="1" transform="rotate(75.9267 215.94 24.9998)" fill="#40BF9C"/>
<rect x="228" y="31.8591" width="8" height="2" rx="1" transform="rotate(-79.2346 228 31.8591)" fill="#40BF9C"/>
<rect x="236.134" y="37.9636" width="8" height="2" rx="1" transform="rotate(-60 236.134 37.9636)" fill="#40BF9C"/>
<rect x="240.878" y="44.0691" width="8" height="2" rx="1" transform="rotate(-15 240.878 44.0691)" fill="#40BF9C"/>
<path d="M144.057 187C144.057 187 129.218 191.347 127 270H157.5L164.5 228.532L168 270H196C196 270 203.413 227.422 188.029 187H144.057Z" fill="#FDC75B"/>
<path d="M160.725 94.4016L161.159 122.093H177.103L176.655 100.476L160.725 94.4016Z" fill="#F4C3A2"/>
<path d="M176.886 113.334L164.026 101.46L176.655 100.365L176.886 113.334Z" fill="#E8AE87"/>
<path d="M144.022 75.9746C152.307 75.8349 158.91 69.0178 158.77 60.7483C158.63 52.4788 151.8 45.8884 143.514 46.0282C135.229 46.1679 128.626 52.985 128.766 61.2545C128.906 69.524 135.736 76.1144 144.022 75.9746Z" fill="#2D3846"/>
<path d="M162.47 78.0941C167.787 74.5589 169.225 67.3911 165.683 62.0845C162.141 56.7778 154.96 55.3418 149.643 58.877C144.326 62.4122 142.887 69.58 146.429 74.8866C149.971 80.1933 157.153 81.6293 162.47 78.0941Z" fill="#40BF9C"/>
<path d="M166.708 96.0192C178.789 96.0192 188.582 87.2791 188.582 76.4976C188.582 65.7162 178.789 56.9761 166.708 56.9761C154.627 56.9761 144.834 65.7162 144.834 76.4976C144.834 87.2791 154.627 96.0192 166.708 96.0192Z" fill="#2D3846"/>
<path d="M180.165 89.4076C181.136 92.486 184.43 94.2004 187.514 93.2314C190.598 92.2624 192.316 88.9753 191.345 85.8968C190.374 82.8184 187.081 81.104 183.996 82.073C180.905 83.0495 179.194 86.3291 180.165 89.4076Z" fill="#E8AE87"/>
<path d="M168.851 61.9402C177.618 61.1054 185.407 67.7244 186.976 76.3709C188.051 82.2892 189.03 90.0337 187.573 94.5433C185.079 102.295 178.85 107.245 168.671 105.426C168.671 105.426 156.372 103.205 153.81 87.7901C151.121 71.5333 159.306 62.8496 168.851 61.9402Z" fill="#F4C3A2"/>
<path d="M179.308 88.3159L180.429 90.9248L178.285 91.5285" stroke="#2D3846" stroke-width="0.7719" stroke-miterlimit="10" stroke-linecap="round" stroke-linejoin="round"/>
<path d="M170.648 77.1322C170.648 77.1322 174.755 76.4761 174.999 78.0848C174.999 78.0848 175.133 79.1762 171.536 79.6873C167.94 80.1983 166.504 80.1289 166.046 79.1321C165.587 78.129 168.702 77.2962 170.648 77.1322Z" fill="#2D3846"/>
<path d="M185.574 77.1404C185.574 77.1404 181.562 76.4442 181.009 78.1499C181.009 78.1499 180.663 79.3196 184.187 79.8487C186.754 80.2316 187.703 79.8557 187.951 79.0689C188.256 78.143 187.093 77.3005 185.574 77.1404Z" fill="#2D3846"/>
<path d="M180.795 94.8381L172.558 94.9574C172.558 94.9574 173.962 97.2532 177.495 97.2234C181.02 97.1935 180.795 94.8381 180.795 94.8381Z" fill="white"/>
<path d="M174.998 59.8906C174.998 59.8906 175.797 78.8979 153.348 81.5962C153.348 81.5962 146.626 68.6861 163.094 61.8659L174.998 59.8906Z" fill="#2D3846"/>
<path d="M161.263 75.3721L157.567 88.1107L150.928 80.5376L161.263 75.3721Z" fill="#2D3846"/>
<path d="M155.191 94.9308C158.653 93.0826 159.959 88.7828 158.107 85.327C156.255 81.8712 151.947 80.568 148.485 82.4162C145.022 84.2644 143.717 88.5642 145.569 92.02C147.42 95.4758 151.728 96.779 155.191 94.9308Z" fill="#F4C3A2"/>
<path d="M155.251 90.8015C153.802 85.0918 148.605 86.6422 148.605 86.6422" stroke="#2D3846" stroke-width="0.772" stroke-miterlimit="10" stroke-linecap="round" stroke-linejoin="round"/>
<path d="M174.878 117.337L220.695 118.91C224.937 118.597 228.805 121.347 229.896 125.454C231.27 130.635 227.745 135.83 222.42 136.478L176.865 137.522C171.51 138.17 166.581 134.54 165.633 129.248C164.565 123.322 168.866 117.784 174.878 117.337Z" fill="#F4C3A2"/>
<path d="M213.81 72.9121L213.817 124.5C212.047 128.92 214.639 133.527 219.112 135.166C223.862 136.903 228.992 131.879 230.187 126.975L220.486 74.5147L213.81 72.9121Z" fill="#F4C3A2"/>
<path d="M219.627 77.3995C219.627 77.3995 222.502 72.234 218.954 66.1368L219.268 59.3389C219.313 58.2805 218.581 57.3562 217.536 57.1624C216.408 56.9537 215.318 57.6692 215.071 58.7873L214.19 62.7826L213.734 61.426C213.01 59.2793 213.04 56.9462 213.809 54.8144L215.997 48.747C216.244 48.0538 216.102 47.2861 215.609 46.7345C214.668 45.6686 212.95 45.8848 212.3 47.1519L208.417 54.7399C206.916 57.6842 206.752 61.1278 207.976 64.1913L213.936 80.3363L219.627 77.3995Z" fill="#F4C3A2"/>
<path d="M194.191 117.941L143.191 116.793C143.191 116.793 137.001 117 133.5 125.5C130 134 137.963 136.754 137.963 136.754L145 147.5L148.359 163.215L143.968 186.441H187.947L194.191 117.941Z" fill="#F4C3A2"/>
<path d="M186.862 117.784C191.44 125.342 192 134.906 192 134.906C192 134.906 194.662 148.5 190.096 159.488L188.162 187H143.405L146.163 162.5L142.163 143.5C142.163 143.5 146.198 137.5 148.662 116.785H156.25C156.25 116.785 157.458 140.707 174 139C183.674 138.002 180.162 117.784 180.162 117.784H186.862Z" fill="#2D3846"/>
<path d="M289.095 197.148L272 270H308L318 235.148L320.5 270H356L348 200.648L289.095 194V197.148Z" fill="#2D3846"/>
<path d="M291.037 43.3354C291.037 43.3354 281.343 51.9297 292.008 60.8519L296.944 59.5699L291.037 43.3354Z" fill="#2D3846"/>
<path d="M325.218 80.9697C325.218 80.9697 332.402 89.4373 320.423 89.3851C320.423 89.3851 319.856 86.1874 320.55 81.5213L325.218 80.9697Z" fill="#2D3846"/>
<path d="M297.559 81.9987C300.032 80.0563 300.459 76.4809 298.513 74.0127C296.567 71.5445 292.985 71.1182 290.512 73.0606C288.039 75.003 287.612 78.5785 289.558 81.0467C291.504 83.5149 295.086 83.9411 297.559 81.9987Z" fill="#CE9167"/>
<path d="M304.92 91.1219L303.807 109.473C304.218 116.316 312.597 119.372 317.332 114.415L324.36 110.271L322.246 76.3037L304.92 91.1219Z" fill="#E5AC85"/>
<path d="M304.166 104.106L317.145 90.123L304.92 91.1219L304.166 104.106Z" fill="#CE9167"/>
<path d="M292.897 54.4267C292.897 54.4267 289.237 77.2802 292.068 84.4955C294.898 91.7182 301.194 96.1607 310.962 94.0736C310.962 94.0736 322.351 93.2612 324.435 76.9075C327.571 52.2726 304.159 41.0844 292.897 54.4267Z" fill="#E5AC85"/>
<path d="M297.094 73.3745L295.667 76.7511C295.428 77.325 295.697 77.981 296.28 78.212L297.938 78.8754" stroke="#2D3846" stroke-width="0.7306" stroke-miterlimit="10" stroke-linecap="round" stroke-linejoin="round"/>
<path d="M306.302 62.7602C306.302 62.7602 302.015 61.6198 301.769 63.841C301.769 63.841 301.634 65.3467 305.391 66.2486C309.14 67.1505 310.641 67.1431 311.119 65.779C311.582 64.4224 308.326 63.1031 306.302 62.7602Z" fill="#2D3846"/>
<path d="M291.47 62.6111C291.47 62.6111 295.242 61.6942 295.645 63.8335C295.645 63.8335 295.891 65.3019 292.576 66.0026C290.163 66.5169 289.305 66.0473 289.125 65.0634C288.916 63.9006 290.051 62.8272 291.47 62.6111Z" fill="#2D3846"/>
<path d="M305.854 80.6865L296.638 81.3276C296.638 81.3276 296.72 84.9203 301.418 84.6221C306.108 84.324 305.854 80.6865 305.854 80.6865Z" fill="white"/>
<path d="M303.187 71.675C303.187 71.675 304.868 70.4004 307.818 72.1819" stroke="#2D3846" stroke-width="1.1252" stroke-miterlimit="10" stroke-linecap="round" stroke-linejoin="round"/>
<path d="M173 83.4654C173 83.4654 171.548 82.1216 169 83.9998" stroke="#2D3846" stroke-width="1.1252" stroke-miterlimit="10" stroke-linecap="round" stroke-linejoin="round"/>
<path d="M294.98 71.645C294.98 71.645 293.322 70.8773 292.269 72.1295" stroke="#2D3846" stroke-width="1.1252" stroke-miterlimit="10" stroke-linecap="round" stroke-linejoin="round"/>
<path d="M183.041 82.7047C183.041 82.7047 184.538 81.658 185.795 82.7061" stroke="#2D3846" stroke-width="1.1252" stroke-miterlimit="10" stroke-linecap="round" stroke-linejoin="round"/>
<path d="M319.632 77.3398C319.632 77.3398 310.319 65.5031 318.519 55.269C318.519 55.269 330.916 51.1769 332.328 61.0904C333.739 70.9966 326.166 77.1012 319.632 77.3398Z" fill="#2D3846"/>
<path d="M332.036 79.1363C331.058 82.8185 327.272 85.0174 323.583 84.0409C319.893 83.0645 317.69 79.2854 318.669 75.6032C319.647 71.921 323.433 69.7221 327.122 70.6986C330.812 71.675 333.015 75.4541 332.036 79.1363Z" fill="#E5AC85"/>
<path d="M328.399 75.2454C328.399 75.2454 323.284 73.9708 322.134 79.5836" stroke="#2D3846" stroke-width="0.7306" stroke-miterlimit="10" stroke-linecap="round" stroke-linejoin="round"/>
<path d="M315.883 61.2397C315.883 61.2397 315.704 53.5697 305.562 55.5599C295.42 57.55 287.84 59.8234 287.362 52.4292C286.884 45.0351 294.293 36.9029 306.809 40.3988C313.687 42.3219 323.463 51.7062 326.652 55.4331L324.71 61.7614L315.883 61.2397Z" fill="#2D3846"/>
<path d="M299.819 107.528C299.819 107.528 289.797 109.436 284.764 113.245L281.784 208.475C322.873 225.947 352.268 203.824 352.268 203.824L342.283 113.715C342.283 113.715 340.984 108.638 326.996 107.55L299.819 107.528Z" fill="#F35843"/>
<path d="M333.015 108.385C333.015 108.385 317.772 104.293 299.819 107.528L306.264 124.135L333.015 108.385Z" fill="#E5AC85"/>
<path d="M347.55 156.108C347.55 156.108 359.411 188.759 364.902 224.736L373.958 224.736C373.958 224.736 372.606 174.321 363.984 141.812L347.55 156.108Z" fill="#E5AC85"/>
<path d="M143.5 140.5C143.5 141 130.108 168.662 117.772 200.939L109.369 199.116C109.369 199.116 119.455 152.929 134 124.5C134 124.5 143.5 140 143.5 140.5Z" fill="#F4C3A2"/>
<path d="M373.356 221.794C373.356 221.794 385.41 240.112 371.536 248.954C370.625 249.536 369.454 249.348 368.754 248.499L368.657 248.385C367.884 247.451 367.94 246.039 368.741 245.114C370.689 242.861 373.289 238.251 368.901 232.467C368.901 232.467 366.667 233.154 367.136 237.968C367.26 239.206 366.323 240.28 365.18 240.203C364.396 240.144 363.742 239.562 363.536 238.749C362.741 235.596 361.369 227.751 365.976 223.373L373.356 221.794Z" fill="#E5AC85"/>
<path d="M110.52 196.508C110.52 196.508 95.6485 211.078 106.742 222.075C107.47 222.799 108.594 222.859 109.415 222.213L109.528 222.126C110.433 221.415 110.665 220.094 110.108 219.074C108.754 216.591 107.269 211.791 112.505 207.307C112.505 207.307 114.44 208.394 113.036 212.767C112.672 213.891 113.325 215.076 114.401 215.234C115.14 215.337 115.864 214.929 116.219 214.216C117.591 211.45 120.443 204.447 117.049 199.458L110.52 196.508Z" fill="#F4C3A2"/>
<path d="M336.226 109.272C336.226 109.272 362.917 112.88 366.3 151.617L332.858 163.059L330.424 131.462L336.226 109.272Z" fill="#F35843"/>
<path d="M244.5 129.5C247 131 272.307 132.766 272.307 132.766L279.528 112L244.787 112.201C244.787 112.201 242 128 244.5 129.5Z" fill="#E5AC85"/>
<path d="M298.816 107.786C298.358 107.786 271.588 108.03 271.588 108.03C264 118.435 264 139.5 264 139.5H298.816C298.816 139.5 299.275 107.786 298.816 107.786Z" fill="#F35843"/>
<path d="M236.001 69.9998L252.753 114.826C256.067 124.346 253.209 126.956 250.934 128.269C245.328 131.504 239.229 128.982 237.808 123.031L229.001 70.9998L236.001 69.9998Z" fill="#E5AC85"/>
<path d="M236.415 71.9138L234.505 63.7957L234.57 52.8356C234.667 51.6885 234.63 50.5319 234.46 49.392L233.023 39.8599C232.892 38.9796 232.117 38.3487 231.235 38.3936C230.295 38.4474 229.577 39.2578 229.629 40.206L229.972 50.296L228.012 57.7625L225.072 50.6078C224.627 49.8204 223.685 49.4597 222.841 49.7642C221.961 50.0787 221.828 50.8336 221.932 51.9256L222.596 58.19C222.875 60.0843 223.446 61.9246 224.274 63.6546L230.109 74.6597L236.415 71.9138Z" fill="#E5AC85"/>
</svg>
