<svg width="480" height="270" viewBox="0 0 480 270" fill="none" xmlns="http://www.w3.org/2000/svg">
<path d="M229.929 203.247H223.668V225.363H229.929V203.247Z" fill="#1D2D32"/>
<path d="M232.694 198H221.253V205.861H232.694V198Z" fill="#6B7F99"/>
<path d="M232.821 221.806H220.821V255.806H232.821V221.806Z" fill="#6B7F99"/>
<path d="M257.821 251.806H193.821V255.806H257.821V251.806Z" fill="#6B7F99"/>
<path d="M196.821 251.806H193.821V266.677H196.821V251.806Z" fill="#6B7F99"/>
<path d="M199.821 265.5C199.821 267.983 197.804 270 195.321 270C192.838 270 190.821 267.983 190.821 265.5C190.821 263.017 192.838 261 195.321 261C197.804 261 199.821 263.017 199.821 265.5Z" fill="#6B7F99"/>
<path d="M257.821 251.806H254.821V265.806H257.821V251.806Z" fill="#6B7F99"/>
<path d="M260.821 265.306C260.821 267.789 258.804 269.806 256.321 269.806C253.838 269.806 251.821 267.789 251.821 265.306C251.821 262.822 253.838 260.806 256.321 260.806C258.804 260.806 260.821 262.822 260.821 265.306Z" fill="#6B7F99"/>
<path d="M259.632 195.054C237.406 195.054 219.338 176.971 219.338 154.76V105.38C219.338 102.568 221.621 100.285 224.434 100.285C227.246 100.285 229.529 102.568 229.529 105.38V154.745C229.529 171.361 243.046 184.863 259.647 184.863C262.459 184.863 264.742 187.146 264.742 189.958C264.727 192.771 262.444 195.054 259.632 195.054Z" fill="#1D2D32"/>
<path d="M224.42 100.284H170.081L173.392 140.154L171.804 170.136L198.914 187.403L205.294 195.053H259.634L244.862 185.679L233.855 173.205L229.44 170.514L225.766 146.278L225.524 117.142L224.42 100.284Z" fill="#2D3846"/>
<path d="M205.293 195.053C183.103 193.811 165 176.97 165 154.759V105.379C165 102.567 167.283 100.284 170.095 100.284C172.907 100.284 175.191 102.567 175.191 105.379V154.744C175.191 171.36 188.707 184.862 205.309 184.862C208.121 184.862 220.41 187.024 220.41 189.836C220.395 192.648 222.09 195.993 205.293 195.053Z" fill="#1D2D32"/>
<path d="M271.955 256.589L271.532 227.408L256.73 226.622L257.138 257.965L271.411 258.055L271.955 256.589Z" fill="#FFB0A0"/>
<path d="M217.904 159.612L224.844 165.433C222.818 177.846 216.12 189.125 228.699 189.125H251V240.41L276.023 240.743L277.414 177.906C277.596 167.912 269.567 159.703 259.573 159.687L217.904 159.612Z" fill="#0F3E5E"/>
<path d="M231.859 256.589L231.436 227.408L216.634 226.622L217.027 257.965L231.315 258.055L231.859 256.589Z" fill="#FFB0A0"/>
<path d="M186.395 159.612L185.443 165.433C183.417 177.846 192.097 185.739 204.676 185.739H211.615V240.41L236.637 240.743L238.028 177.906C238.21 167.912 230.181 159.703 220.187 159.687L186.395 159.612Z" fill="#174C71"/>
<path d="M250.401 138.834L284.133 145.94L285.947 152.698L241.783 153.333L238.245 134.993L250.401 138.834Z" fill="#F9A498"/>
<path d="M279.007 145.546C279.007 145.546 285.902 141.358 292.736 143.112C297.241 144.261 301.702 148.6 301.354 153.227L273.912 152.879L279.007 145.546Z" fill="#F9A498"/>
<path d="M252.336 114.46L256.222 143.339C256.222 143.339 239.363 152.214 239.726 151.14C240.074 150.067 235.946 114.46 235.946 114.46H252.336V114.46Z" fill="#F9A498"/>
<path d="M237.278 90.5723C237.278 90.5723 249.646 92.5227 252.473 103.076C256.147 116.835 257.553 118.815 257.553 118.815L238.85 121.537L237.278 90.5723Z" fill="#40BF9C"/>
<path d="M213.493 87.0652L237.276 90.5729C239.68 90.9358 241.479 92.992 241.51 95.4263L242.069 151.837L189.015 151.988L185.416 102.774L187.382 96.1066C188.304 92.992 190.935 90.6787 194.14 90.1647L213.493 87.0652Z" fill="#40BF9C"/>
<path d="M197.92 118.634L187.987 144.307L172.656 130.972L178.613 112.496L197.92 118.634Z" fill="#FFB0A0"/>
<path d="M207.596 89.0604C207.596 89.0604 189.135 88.894 184.539 94.3522C178.763 101.216 171.899 118.77 171.899 118.77L201.926 125.393L207.596 89.0604Z" fill="#40BF9C"/>
<path d="M189.695 140.029L224.349 147.755L222.928 155.436L181.969 155.708C181.969 155.708 163.659 152.019 172.655 130.988L189.695 140.029Z" fill="#FFB0A0"/>
<path d="M224.346 147.74C224.346 147.74 232.495 144.549 239.239 145.82C243.82 146.681 246.889 151.036 246.541 155.693L219.326 155.451L224.346 147.74Z" fill="#FFB0A0"/>
<path d="M229.371 45.064C229.371 45.064 238.805 53.924 229.507 57.1293L229.371 45.064Z" fill="#2D3846"/>
<path d="M223.762 60.8485C223.671 64.4469 226.408 67.4557 229.9 67.5615C233.378 67.6674 236.281 64.84 236.387 61.2416C236.477 57.6431 233.741 54.6343 230.248 54.5285C226.755 54.4227 223.853 57.25 223.762 60.8485Z" fill="#EF4343"/>
<path d="M222.035 74.7431L222.534 87.3074C222.716 91.7223 220.176 94.1716 215.973 94.2926C212.374 94.3984 208.367 92.8109 208.367 88.9101L208.504 69.1035L222.035 74.7431Z" fill="#FFB0A0"/>
<path d="M222.4 83.104C222.4 83.104 212.194 84.3741 208.565 72.974C207.416 69.3906 222.022 73.4578 222.022 73.4578L222.4 83.104Z" fill="#EDA698"/>
<path d="M218.408 78.5535C225.59 78.2814 231.275 72.2184 231.244 66.1555L231.108 53.4854C231.078 45.8954 225.212 39.6813 217.864 39.4545C210.334 39.2126 202.744 45.2755 202.532 53.0469L202.759 62.92C202.956 71.8102 209.805 78.2814 218.408 78.5535Z" fill="#FFB0A0"/>
<path d="M217.871 68.9993L224.964 68.9705C224.964 68.9705 224.782 72.0965 221.111 72.0057C217.432 71.9119 217.871 68.9993 217.871 68.9993Z" fill="#FEF8FE"/>
<path d="M223.716 62.7251L224.049 65.1593L222.28 65.2954" stroke="#0B181B" stroke-width="0.728177" stroke-miterlimit="10" stroke-linecap="round" stroke-linejoin="round"/>
<path d="M215.747 55.3154C215.747 55.3154 218.68 54.9525 218.755 56.1772C218.755 56.1772 218.786 57.0088 216.23 57.2809C213.675 57.5531 212.995 57.3867 212.738 56.6005C212.466 55.8446 214.371 55.3759 215.747 55.3154Z" fill="#0B181B"/>
<path d="M227.599 54.9072C227.599 54.9072 225.165 54.7409 225.014 55.9202C225.014 55.9202 224.923 56.7064 227.055 56.7972C229.187 56.8879 229.867 56.5855 230.049 55.9353C230.245 55.2096 228.748 54.877 227.599 54.9072Z" fill="#0B181B"/>
<path d="M226.074 60.124C226.074 60.8346 226.633 61.3941 227.314 61.3941C227.994 61.3941 228.538 60.8195 228.538 60.1089C228.538 59.3983 227.979 58.8389 227.299 58.8389C226.618 58.8389 226.074 59.4134 226.074 60.124Z" fill="#0B181B"/>
<path d="M215.249 60.1841C215.249 60.8947 215.808 61.4541 216.488 61.4541C217.169 61.4541 217.713 60.8796 217.713 60.169C217.713 59.4583 217.154 58.8989 216.473 58.8989C215.793 58.914 215.249 59.4886 215.249 60.1841Z" fill="#0B181B"/>
<path d="M238.654 40.8003L233.211 40.0293C234.798 39.0162 236.401 38.0184 236.401 38.0184C236.401 38.0184 232.682 36.7332 227.738 36.7483C224.517 35.0096 220.389 33.8151 216.065 33.7698C209.745 33.6942 204.348 37.1263 202.397 40.8911C202.397 40.8911 197.151 40.5736 196.425 46.5155C195.488 54.2113 204.756 66.9268 204.756 66.9268L205.799 56.8724C211.545 56.4641 211.802 51.3991 211.363 48.0879C213.949 48.3147 222.854 48.8893 229.824 47.3471C230.58 47.2564 231.608 47.0598 232.485 46.6062C235.766 45.4571 238.23 43.6428 238.654 40.8003Z" fill="#2D3846"/>
<path d="M196.152 62.9204C196.076 65.7931 198.269 68.1971 201.051 68.2878C203.833 68.3786 206.161 66.1106 206.237 63.2379C206.312 60.3652 204.12 57.9612 201.338 57.8705C198.556 57.7949 196.243 60.0477 196.152 62.9204Z" fill="#FFBA99"/>
<path d="M202.894 64.3864C202.894 64.3864 202.999 60.6066 199.477 61.0904" stroke="#312220" stroke-width="0.770905" stroke-miterlimit="10" stroke-linecap="round" stroke-linejoin="round"/>
<path d="M220.798 33.5733L220.949 34.299C220.949 34.299 211.832 35.2516 207.674 40.8004C203.048 46.9843 202.972 55.3151 202.972 55.3151L201.007 55.4815L201.143 42.267L205.089 38.1545L211.394 34.3898L215.809 32.9836L220.798 33.5733Z" fill="#E8413D"/>
<path d="M208.459 60.1081C209.397 64.4474 206.6 68.7413 201.096 69.9357C197.195 70.7824 195.305 67.5015 194.368 63.1622C193.431 58.8229 195.82 54.6197 199.72 53.773C203.591 52.9414 207.522 55.7688 208.459 60.1081Z" fill="#EF4343"/>
<path d="M206.433 60.5465C207.371 64.8858 204.982 69.0891 201.081 69.9357C197.18 70.7824 193.264 67.94 192.327 63.6007C191.389 59.2614 193.778 55.0582 197.679 54.2115C201.58 53.3799 205.496 56.2072 206.433 60.5465Z" fill="#F35843"/>
<path d="M198.164 55.1485C198.164 55.1485 197.408 50.3254 198.557 45.0487C200.009 38.381 205.346 33.6184 212.074 32.3937C212.588 32.303 213.133 32.2123 213.692 32.1367C215.642 31.8796 217.759 31.925 219.528 32.8019C219.982 33.0287 220.405 33.2857 220.783 33.573C220.783 33.573 211.923 33.9359 207.659 38.6834C202.851 44.0206 201.596 51.1872 201.899 55.965L198.164 55.1485Z" fill="#F35843"/>
<path d="M203.501 88.6683L213.495 87.0657L226.785 89.0312C226.785 89.0312 227.601 96.7875 216.367 97.105C205.134 97.4225 203.501 88.6683 203.501 88.6683Z" fill="#FFB0A0"/>
<path d="M231.869 132.772L235.931 135.687L264.759 111.376L334.94 72.6445L331.151 69.8984L283.001 84.683L231.869 132.772Z" fill="#6B7F99"/>
<path d="M241.831 72.1366L230.399 128.88C229.904 131.314 231.766 133.578 234.24 133.578H316.491C318.34 133.578 319.942 132.29 320.332 130.481L332.48 73.7374C333.001 71.2907 331.139 69.0001 328.639 69.0001H245.672C243.81 68.9871 242.195 70.3146 241.831 72.1366Z" fill="#6B7F99"/>
<path d="M245.307 75.1085L233.901 131.344C233.407 133.756 235.265 136 237.733 136H319.796C321.641 136 323.239 134.723 323.629 132.93L335.749 76.695C336.269 74.2701 333.884 72.0001 331.39 72.0001H248.58C246.709 71.9872 245.67 73.2899 245.307 75.1085Z" fill="#C8D2DB"/>
<path d="M275.476 121.253L273.939 136.259H280.619L275.476 121.253Z" fill="#6B7F99"/>
<path d="M275.475 120.941L282.285 154.532H307.116L295.475 120.941H275.475Z" fill="#C8D2DB"/>
<path d="M288.508 100.599C291.55 100.599 294.016 98.1347 294.016 95.0943C294.016 92.0539 291.55 89.5891 288.508 89.5891C285.466 89.5891 283 92.0539 283 95.0943C283 98.1347 285.466 100.599 288.508 100.599Z" fill="white"/>
<path d="M322.367 150H263.633C262.732 150 262 150.672 262 151.5C262 152.328 262.732 153 263.633 153H322.367C323.268 153 324 152.328 324 151.5C324 150.672 323.268 150 322.367 150Z" fill="#C8D2DB"/>
<path d="M253.385 150H222.615C221.724 150 221 150.672 221 151.5C221 152.328 221.724 153 222.615 153H253.385C254.276 153 255 152.328 255 151.5C255 150.672 254.276 150 253.385 150Z" fill="#C8D2DB"/>
<path d="M256.792 253.826C256.792 253.826 268.298 258.938 273.543 251L295 267H274.555H253V266L256.792 253.826Z" fill="#414B57"/>
<rect x="253" y="267" width="42" height="3" fill="#37414D"/>
<path d="M214.153 253.826C214.153 253.826 226.755 258.938 232.5 251L256 267H233.608H210L214.153 253.826Z" fill="#3C4858"/>
<rect x="210" y="267" width="46" height="3" fill="#2D3846"/>
<path d="M329.403 162.656L325.458 162L308 270L312 270L329.403 162.656Z" fill="#6B7F99"/>
<path d="M325.07 162.656L329.016 162L346 270H342L325.07 162.656Z" fill="#6B7F99"/>
<path d="M321.071 160H333.071V164C333.071 165.105 332.175 166 331.071 166H323.071C321.966 166 321.071 165.105 321.071 164V160Z" fill="#6B7F99"/>
<path d="M153.403 162.656L149.458 162L132 270L136 270L153.403 162.656Z" fill="#6B7F99"/>
<path d="M149.07 162.656L153.016 162L170 270H166L149.07 162.656Z" fill="#6B7F99"/>
<path d="M145.071 161H157.071V165C157.071 166.105 156.175 167 155.071 167H147.071C145.966 167 145.071 166.105 145.071 165V161Z" fill="#6B7F99"/>
<path d="M180 153H128V161H180V153Z" fill="#C8D2DB"/>
<path d="M351 153H180V161H351V153Z" fill="#6B7F99"/>
</svg>
