<svg width="480" height="270" viewBox="0 0 480 270" fill="none" xmlns="http://www.w3.org/2000/svg">
<path d="M255.669 115.93L250.973 142.269C250.55 144.32 252.016 146.274 254.103 146.438C255.723 146.561 257.606 145.414 258.08 143.86L264.811 118.277C265.587 115.728 264.103 113.039 261.534 112.333C258.911 111.61 256.222 113.261 255.669 115.93Z" fill="#AF5E4C"/>
<path d="M250.858 143.297L250.125 170.008L255.277 169.344L258.144 143.631C258.332 141.578 256.744 139.25 254.693 139.126C252.587 138.995 250.861 141.196 250.858 143.297Z" fill="#AF5E4C"/>
<path d="M250.681 168.091C250.681 168.091 244.215 177.791 251.945 182.024C252.453 182.302 253.099 182.18 253.477 181.727L253.525 181.665C253.942 181.166 253.899 180.439 253.445 179.98C252.346 178.866 250.876 176.549 253.235 173.475C253.235 173.475 254.47 173.779 254.259 176.266C254.205 176.905 254.728 177.438 255.357 177.37C255.79 177.324 256.142 177.007 256.246 176.582C256.655 174.943 257.333 170.877 254.752 168.726L250.681 168.091Z" fill="#AF5E4C"/>
<path d="M279.524 74.3717C283.542 71.7903 284.689 66.4074 282.086 62.3487C279.482 58.2901 274.114 57.0926 270.095 59.674C266.077 62.2555 264.93 67.6383 267.533 71.697C270.137 75.7557 275.505 76.9532 279.524 74.3717Z" fill="#1F120C"/>
<path d="M276.652 83.7838C279.974 81.6497 280.923 77.201 278.772 73.8473C276.62 70.4935 272.183 69.5048 268.861 71.6389C265.539 73.7729 264.59 78.2217 266.742 81.5754C268.893 84.9291 273.33 85.9179 276.652 83.7838Z" fill="#FDC75B"/>
<path d="M268.278 98.0114V108.435C268.296 110.655 269.924 110.374 272.392 110.342C274.503 110.316 276.471 109.979 276.704 108.127V94.8813L268.278 98.0114Z" fill="#AF5E4C"/>
<path d="M276.704 103.595L268.278 97.7861H276.704V103.595Z" fill="#994D3D"/>
<path d="M284.011 82.6473C284.011 89.2143 278.901 94.5403 272.603 94.5403C266.304 94.5403 261.195 89.2143 261.195 82.6473C261.195 76.0803 266.304 71.6104 272.603 71.6104C278.907 71.6161 284.011 76.0803 284.011 82.6473Z" fill="#1F120C"/>
<path d="M285.98 88.5766C285.98 90.3002 284.585 91.6963 282.862 91.6963C281.14 91.6963 279.745 90.3002 279.745 88.5766C279.745 86.8529 281.14 85.4568 282.862 85.4568C284.585 85.4568 285.98 86.8529 285.98 88.5766Z" fill="#AF5E4C"/>
<path d="M281.115 89.2552C281.288 89.0254 281.89 87.273 283.854 87.5603" stroke="#2D3846" stroke-width="0.307924" stroke-miterlimit="10" stroke-linecap="round" stroke-linejoin="round"/>
<path d="M261.988 91.6963C263.71 91.6963 265.106 90.2995 265.106 88.5766C265.106 86.8536 263.71 85.4568 261.988 85.4568C260.266 85.4568 258.871 86.8536 258.871 88.5766C258.871 90.2995 260.266 91.6963 261.988 91.6963Z" fill="#AF5E4C"/>
<path d="M263.736 89.2552C263.563 89.0254 262.96 87.273 260.997 87.5603" stroke="#2D3846" stroke-width="0.307924" stroke-miterlimit="10" stroke-linecap="round" stroke-linejoin="round"/>
<path d="M282.033 82.8364C282.033 86.7605 281.465 90.1446 280.896 92.5461C280.339 94.896 278.772 96.545 276.561 97.8664L276.16 98.1077C273.817 99.5096 270.791 99.5383 268.42 98.1939C266.02 96.8322 264.344 95.0397 263.827 92.5117C262.885 87.9211 262.782 82.8364 262.782 82.8364C262.782 82.8364 261.886 72.9313 272.273 73.1266C282.653 73.3162 282.033 82.8364 282.033 82.8364Z" fill="#AF5E4C"/>
<path d="M278.886 74.3333C278.886 74.3333 276.4 85.3989 261.816 84.3992C261.816 84.3992 262.39 73.4772 269.458 72.5694C269.458 72.5694 276.377 71.5755 278.886 74.3333Z" fill="#1F120C"/>
<path d="M275.233 73.1208C275.233 73.1208 275.733 80.768 281.962 85.1345L282.858 81.5034C282.864 81.5034 283.851 73.8965 275.233 73.1208Z" fill="#1F120C"/>
<path d="M264.791 82.647L263.097 87.3869L262.368 82.647H264.791Z" fill="#1F120C"/>
<path d="M279.97 82.647L281.722 86.9905L282.393 82.647H279.97Z" fill="#1F120C"/>
<path d="M271.901 89.0015V90.2597C271.901 90.5757 272.182 90.8113 272.486 90.7481L273.158 90.6102" stroke="#2D3846" stroke-width="0.328152" stroke-miterlimit="10" stroke-linecap="round" stroke-linejoin="round"/>
<path d="M267.83 83.4349C267.83 83.4349 269.799 83.1649 269.862 83.9693C269.862 83.9693 269.891 84.5151 268.168 84.7162C266.446 84.9173 265.298 84.8138 265.108 84.314C264.93 83.8141 266.905 83.4924 267.83 83.4349Z" fill="#1F120C"/>
<path d="M276.654 83.3077C276.654 83.3077 274.593 83.0262 274.524 83.8708C274.524 83.8708 274.496 84.4396 276.298 84.6522C278.101 84.8647 279.307 84.7556 279.502 84.227C279.692 83.7042 277.625 83.3652 276.654 83.3077Z" fill="#1F120C"/>
<path d="M269.012 92.2532C269.012 92.2532 272.096 94.0342 275.684 91.9946" stroke="#2D3846" stroke-width="0.328152" stroke-miterlimit="10" stroke-linecap="round" stroke-linejoin="round"/>
<path d="M268.892 87.3471C268.892 87.8297 268.502 88.2146 268.02 88.2146C267.537 88.2146 267.147 87.8239 267.147 87.3471C267.147 86.8702 267.537 86.4795 268.02 86.4795C268.502 86.4795 268.892 86.8702 268.892 87.3471Z" fill="#1F120C"/>
<path d="M277.201 87.3471C277.201 87.8297 276.81 88.2146 276.328 88.2146C275.846 88.2146 275.455 87.8239 275.455 87.3471C275.455 86.8702 275.846 86.4795 276.328 86.4795C276.81 86.4795 277.201 86.8702 277.201 87.3471Z" fill="#1F120C"/>
<path d="M269.43 106.27L258.969 113.452L265 139L284.287 139.361L285.856 116.813L285.339 107.732L269.43 106.27Z" fill="#AF5E4C"/>
<path d="M265.818 108.118C265.818 108.118 267.593 114.837 273.843 113.772C280.094 112.7 280.315 106.717 280.315 106.717L285.552 107.371L286.33 133L263 133L259.366 110.644L265.818 108.118Z" fill="#FDC75B"/>
<path d="M295.361 115.786L305.362 123.661C307.151 125.146 307.598 127.818 306.162 129.646C304.717 131.483 302.668 131.211 300.822 129.778L291.323 122.651L295.361 115.786Z" fill="#AF5E4C"/>
<path d="M308.602 104.351L300.812 125.295C299.929 127.483 300.394 130.068 302.81 130.716C305.359 131.4 308.018 129.859 308.462 127.443L313.373 104.762L308.602 104.351Z" fill="#AF5E4C"/>
<path d="M285.553 107.37C291.444 109.334 298.085 116.221 298.085 116.221L292.099 124.391L284.898 120.463L285.553 107.37Z" fill="#FDC75B"/>
<path d="M259.365 110.643C253.268 112.007 252.165 125.7 252.165 125.7L261.983 131.592L263.293 123.081L259.365 110.643Z" fill="#FDC75B"/>
<path d="M308.353 99.7751C308.705 97.6901 310.745 96.3354 312.803 96.8197L313.325 96.9425C315.475 97.4485 316.808 99.6019 316.302 101.752L315.943 103.281C315.431 105.456 313.236 106.79 311.07 106.243L310.927 106.207C308.847 105.682 307.552 103.61 307.991 101.511L308.353 99.7751V99.7751Z" fill="#AF5E4C"/>
<path d="M314.533 94.8298C314.841 94.2129 315.63 94.0223 316.185 94.4312V94.4312C316.608 94.743 316.755 95.3088 316.536 95.7867L314.429 100.389L313.767 99.3155C313.262 98.4963 313.216 97.4744 313.645 96.613L314.533 94.8298Z" fill="#AF5E4C"/>
<path d="M313.56 93.2629C313.867 92.646 314.657 92.4554 315.212 92.8643V92.8643C315.635 93.1761 315.781 93.7419 315.563 94.2198L313.456 98.8221L312.794 97.7486C312.289 96.9294 312.243 95.9075 312.672 95.0462L313.56 93.2629Z" fill="#AF5E4C"/>
<path d="M315.508 96.3967C315.815 95.7798 316.605 95.5892 317.16 95.9981V95.9981C317.583 96.3099 317.729 96.8757 317.51 97.3536L315.403 101.956L314.742 100.882C314.237 100.063 314.191 99.0413 314.62 98.1799L315.508 96.3967Z" fill="#AF5E4C"/>
<path d="M316.48 97.9636C316.787 97.3466 317.577 97.1561 318.132 97.565V97.565C318.555 97.8768 318.701 98.4426 318.482 98.9205L316.375 103.523L315.714 102.449C315.209 101.63 315.163 100.608 315.592 99.7468L316.48 97.9636Z" fill="#AF5E4C"/>
<path d="M318.854 103.785L313.956 106.82C313.617 107.029 313.172 106.925 312.959 106.586L307.142 97.1927C306.933 96.8532 307.037 96.408 307.376 96.195L312.273 93.1592C312.612 92.9502 313.057 93.0541 313.27 93.3933L319.087 102.787C319.297 103.13 319.193 103.576 318.854 103.785Z" fill="#2D3846" stroke="#2D3846" stroke-width="0.406179" stroke-miterlimit="10"/>
<path d="M317.41 102.547L313.489 104.976C313.149 105.185 312.704 105.081 312.492 104.742L307.95 97.4119C307.741 97.0723 307.845 96.6271 308.184 96.4141L312.106 93.9851C312.445 93.7762 312.89 93.8801 313.103 94.2192L317.644 101.549C317.853 101.889 317.75 102.338 317.41 102.547Z" fill="#727070"/>
<path d="M307.741 100.167C307.664 99.4494 308.278 98.8486 308.994 98.9425V98.9425C309.478 99.0061 309.864 99.3778 309.947 99.8592L310.715 104.351L307.999 102.546L307.741 100.167Z" fill="#AF5E4C"/>
<path d="M261.526 263.97L261.244 247.457L269.07 247.061L268.496 264.424L261.526 263.97Z" fill="#AF5E4C"/>
<path d="M270.002 260.75C270.002 260.75 264.025 263.341 261.217 259.262L247 268H272L270.002 260.75Z" fill="#2D3846"/>
<path d="M311.15 264.909L307.826 248.396L300 248L304.185 265.363L311.15 264.909Z" fill="#AF5E4C"/>
<path d="M302.682 261.691C302.682 261.691 308.659 264.283 311.466 260.203L325 268H301L302.682 261.691Z" fill="#2D3846"/>
<path d="M265 139C265 139 253.713 152.541 254 169.117C254.287 185.698 256 254 256 254L271 255L274.454 161.783L276.119 161.68L298 255L312.5 252.5L295.82 163.954C295.82 163.954 292.09 148.606 284.316 139H265Z" fill="#F35843"/>
<path d="M247 268H272V270H247V268Z" fill="#6B7F99"/>
<path d="M301 268H325V270H301V268Z" fill="#6B7F99"/>
<path d="M112.737 118.009C112.737 118.009 121.584 137.646 125.947 158.81L130.507 157.891C130.507 157.891 127.94 132.341 121.827 113.329L112.737 118.009Z" fill="#FFB1A5"/>
<path d="M130.061 156.165C130.061 156.165 137.772 166.008 129.818 171.328C129.295 171.679 128.595 171.608 128.154 171.156L128.093 171.095C127.606 170.597 127.596 169.811 128.042 169.272C129.128 167.963 130.528 165.323 127.748 162.231C127.748 162.231 126.444 162.678 126.87 165.343C126.982 166.029 126.459 166.653 125.78 166.643C125.313 166.633 124.907 166.328 124.76 165.881C124.192 164.15 123.137 159.825 125.734 157.256L130.061 156.165Z" fill="#FFB1A5"/>
<path d="M78.093 104.677L64.4819 116.378C62.2567 118.488 61.8995 122.043 63.9481 124.325C66.0082 126.617 68.6825 126.081 70.9872 124.035L82.8726 113.833L78.093 104.677Z" fill="#FFB1A5"/>
<path d="M57.5441 93.4253L70.403 118.609C71.8734 121.29 71.5692 124.636 68.378 125.747C65.0134 126.919 61.2186 125.271 60.3133 122.248L50.8119 93.9527L57.5441 93.4253Z" fill="#FFB1A5"/>
<path d="M83.4176 264.492L81.9993 247.748L90.9263 246.177L90.9268 264.976L83.4176 264.492Z" fill="#FAAEB0"/>
<path d="M91.872 261.027C91.872 261.027 85.4339 263.819 82.4024 259.423L66 268H93L91.872 261.027Z" fill="#1D2D32"/>
<path d="M123.391 264.491L121.104 246.695L112.669 246.265L115.882 264.975L123.391 264.491Z" fill="#FAAEB0"/>
<path d="M114.257 261.027C114.257 261.027 120.696 263.819 123.727 259.423L139 268H112L114.257 261.027Z" fill="#1D2D32"/>
<path d="M110 133C110 133 115.646 139.127 119.065 155.531C122.665 172.794 128.619 246.793 128.619 246.793L107 248L98.0787 165.276L98 248L76.6192 248.293C76.6192 248.293 68.7264 149.997 87 133H110Z" fill="#FDC75B"/>
<path d="M80.7655 79.2291C81.7579 75.4568 82.1209 76.1349 85.461 68.6388C87.4578 64.158 89.0007 62.3597 89.9205 61.633C89.9205 61.633 93.2968 58 99.3295 58C105.09 58 108.43 61.4514 108.43 61.4514C109.307 62.0327 110.947 63.7281 113.138 68.6388C116.478 76.1349 116.841 75.4628 117.833 79.2291C118.825 83.0014 117.561 89.9526 109.798 91.3089C109.798 91.3089 110.79 90.3159 111.153 88.6871C111.153 88.6871 107.904 93.1133 103.48 92.8409H95.1242C90.701 93.1133 87.4517 88.6871 87.4517 88.6871C87.8148 90.3159 88.8071 91.3089 88.8071 91.3089C81.0378 89.9526 79.7732 82.9953 80.7655 79.2291Z" fill="#F35843"/>
<path d="M103.129 86.6268L103.234 94.6052C103.216 97.1196 101.484 96.886 99.0083 96.8433C96.8928 96.8128 94.5253 96.3763 94.2929 94.283V83.4568L103.129 86.6268Z" fill="#FFB1A5"/>
<path d="M94.2929 90.7212L103.469 86.5433L94.2929 84.5742V90.7212Z" fill="#EEA296"/>
<path d="M103.209 93.8215L107.357 96.1511C107.357 96.1511 98.0224 101.156 90.3257 95.4698L95.0946 93.426L103.209 93.8215Z" fill="#FFB1A5"/>
<path d="M87.4223 70.5535C87.4223 77.3109 92.6745 82.7907 99.161 82.7907C105.641 82.7907 110.9 77.3109 110.9 70.5535C110.9 63.796 105.648 59.2002 99.161 59.2002C92.6805 59.2002 87.4223 63.796 87.4223 70.5535Z" fill="#F35843"/>
<path d="M85.4037 76.6503C85.4037 78.4245 86.8377 79.8595 88.6106 79.8595C90.3835 79.8595 91.8176 78.4245 91.8176 76.6503C91.8176 74.8762 90.3835 73.4412 88.6106 73.4412C86.8377 73.4412 85.4037 74.8762 85.4037 76.6503Z" fill="#FFB1A5"/>
<path d="M90.4095 77.3468C90.2341 77.1106 89.6108 75.3062 87.5899 75.6029" stroke="#2D3846" stroke-width="0.300613" stroke-miterlimit="10" stroke-linecap="round" stroke-linejoin="round"/>
<path d="M110.082 79.8595C108.311 79.8595 106.875 78.4227 106.875 76.6503C106.875 74.878 108.311 73.4412 110.082 73.4412C111.854 73.4412 113.289 74.878 113.289 76.6503C113.289 78.4227 111.854 79.8595 110.082 79.8595Z" fill="#FFB1A5"/>
<path d="M108.288 77.3468C108.463 77.1106 109.087 75.3062 111.108 75.6029" stroke="#2D3846" stroke-width="0.300613" stroke-miterlimit="10" stroke-linecap="round" stroke-linejoin="round"/>
<path d="M89.4634 70.7474C89.4634 74.7862 90.0503 78.2678 90.6312 80.7383C91.206 83.1603 92.8156 84.8497 95.0907 86.2121L95.5082 86.4603C97.9164 87.9014 101.027 87.9317 103.471 86.5451C105.94 85.1464 107.664 83.2996 108.197 80.702C109.165 75.979 109.268 70.7474 109.268 70.7474C109.268 70.7474 110.188 60.5567 99.5078 60.7566C88.8281 60.9503 89.4634 70.7474 89.4634 70.7474Z" fill="#FFB1A5"/>
<path d="M92.697 61.9975C92.697 61.9975 96.0008 73.4597 111.001 72.4304C111.001 72.4304 109.664 61.1195 102.39 60.181C102.397 60.181 95.2807 59.1577 92.697 61.9975Z" fill="#F35843"/>
<path d="M96.4546 60.7495C96.4546 60.7495 95.9403 68.615 89.5263 73.114L88.6005 69.378C88.6066 69.3719 87.584 61.5488 96.4546 60.7495Z" fill="#F35843"/>
<path d="M107.202 70.5466L108.938 75.427L109.694 70.5466H107.202Z" fill="#F35843"/>
<path d="M91.5811 70.5469L89.7779 75.0155L89.0881 70.5469H91.5811Z" fill="#F35843"/>
<path d="M103.119 76.3691C103.119 76.8958 103.549 77.3258 104.081 77.3258C104.614 77.3258 105.043 76.8958 105.043 76.3691C105.043 75.8423 104.614 75.4124 104.081 75.4124C103.555 75.4124 103.119 75.8423 103.119 76.3691Z" fill="#2D3846"/>
<path d="M93.9716 76.3691C93.9716 76.8958 94.4012 77.3258 94.9337 77.3258C95.4661 77.3258 95.8958 76.8958 95.8958 76.3691C95.8958 75.8423 95.4661 75.4124 94.9337 75.4124C94.4012 75.4124 93.9716 75.8423 93.9716 76.3691Z" fill="#2D3846"/>
<path d="M99.8829 78.1917V79.4814C99.8829 79.8084 99.5925 80.0506 99.2779 79.984L98.5881 79.8386" stroke="#2D3846" stroke-width="0.320353" stroke-miterlimit="10" stroke-linecap="round" stroke-linejoin="round"/>
<path d="M104.07 72.4705C104.07 72.4705 102.043 72.192 101.977 73.0215C101.977 73.0215 101.946 73.5846 103.719 73.7905C105.492 73.9964 106.672 73.8934 106.866 73.3727C107.059 72.852 105.026 72.525 104.07 72.4705Z" fill="#F35843"/>
<path d="M94.9927 72.3364C94.9927 72.3364 97.1166 72.0458 97.1831 72.9117C97.1831 72.9117 97.2134 73.499 95.3618 73.717C93.5103 73.935 92.2698 73.826 92.0701 73.281C91.8644 72.7421 93.9883 72.397 94.9927 72.3364Z" fill="#F35843"/>
<path d="M103.161 81.813H95.585C95.585 81.813 96.184 83.7688 99.3729 83.7688C102.041 83.7688 103.161 81.813 103.161 81.813Z" fill="white"/>
<path d="M58.0799 84.8953C57.4869 82.6629 55.1317 81.3954 52.9418 82.13L50.2226 83.0421C48.1282 83.7447 46.9999 86.0122 47.7025 88.1066L49.1796 92.5099C49.8903 94.6285 52.1989 95.7539 54.3057 95.0088L56.8656 94.1034C58.8875 93.3883 59.9856 91.2058 59.3549 89.156L58.307 85.7503L58.0799 84.8953Z" fill="#FFB1A5"/>
<path d="M45.2617 92.4443L52.0634 95.8342C52.5345 96.0673 53.1062 95.8766 53.3444 95.4052L59.8391 82.3591C60.072 81.8876 59.8814 81.3156 59.4103 81.0772L52.6086 77.6872C52.1375 77.4542 51.5659 77.6449 51.3277 78.1163L44.8329 91.1624C44.6 91.6391 44.7906 92.2112 45.2617 92.4443Z" fill="#2D3846" stroke="#1D2D32" stroke-width="0.406179" stroke-miterlimit="10"/>
<path d="M47.0036 90.6434L52.4503 93.3553C52.9214 93.5884 53.4931 93.3977 53.7312 92.9263L58.8021 82.7458C59.035 82.2743 58.8444 81.7023 58.3733 81.4639L52.9267 78.7519C52.4556 78.5189 51.8839 78.7096 51.6457 79.181L46.5749 89.3615C46.342 89.8329 46.5325 90.4103 47.0036 90.6434Z" fill="#6B7F99"/>
<path d="M59.478 87.5259C59.5164 86.5754 58.642 85.8477 57.7144 86.0582V86.0582C57.0964 86.1984 56.6418 86.7248 56.5932 87.3567L56.1308 93.3675L59.3959 89.5587L59.478 87.5259Z" fill="#FFB1A5"/>
<path d="M110.168 97.9399C110.168 97.9399 119.021 100.282 123.784 112.436L112.735 120.338L109.793 112.959L110.168 97.9399Z" fill="#2D3846"/>
<path d="M90.6633 95.208C82.6217 97.0064 74.6561 105.689 74.6561 105.689L82.1501 115.908L89.7194 111.278L90.6633 95.208Z" fill="#2D3846"/>
<path d="M106.676 95.4698C106.676 95.4698 112.546 98.1387 115.184 100.639L110 133H87L82.9575 101.808C82.8788 100.094 83.8893 98.5201 85.4747 97.8783L90.6663 95.208C93.2379 96.2676 106.676 95.4698 106.676 95.4698Z" fill="#2D3846"/>
<path d="M50.8922 79.2675C50.4395 78.5259 49.438 78.3516 48.7613 78.8965V78.8965C48.2186 79.3334 48.0669 80.0963 48.401 80.7077L49.2029 82.1747C49.729 83.1372 51.0828 83.2124 51.7123 82.3142V82.3142C52.0499 81.8324 52.07 81.1965 51.7634 80.6944L50.8922 79.2675Z" fill="#FFB1A5"/>
<path d="M49.7746 81.5028C49.3219 80.7613 48.3203 80.5869 47.6437 81.1318V81.1318C47.101 81.5688 46.9492 82.3317 47.2834 82.943L48.0853 84.4101C48.6114 85.3726 49.9652 85.4478 50.5947 84.5495V84.5495C50.9323 84.0678 50.9524 83.4318 50.6458 82.9298L49.7746 81.5028Z" fill="#FFB1A5"/>
<path d="M48.6569 83.7379C48.2042 82.9964 47.2027 82.822 46.526 83.3669V83.3669C45.9833 83.8039 45.8316 84.5668 46.1657 85.1782L46.9676 86.6452C47.4937 87.6077 48.8476 87.6829 49.477 86.7846V86.7846C49.8146 86.3029 49.8347 85.6669 49.5282 85.1649L48.6569 83.7379Z" fill="#FFB1A5"/>
<path d="M47.5394 85.9733C47.0866 85.2318 46.0851 85.0574 45.4084 85.6023V85.6023C44.8658 86.0392 44.714 86.8021 45.0482 87.4135L45.85 88.8805C46.3761 89.843 47.73 89.9182 48.3595 89.02V89.02C48.6971 88.5382 48.7171 87.9023 48.4106 87.4002L47.5394 85.9733Z" fill="#FFB1A5"/>
<rect x="66" y="268" width="27" height="2" fill="#6B7F99"/>
<rect x="112" y="268" width="27" height="2" fill="#6B7F99"/>
<path d="M174.926 263.614L175.224 242.145L184.217 241.687L182.932 264.132L174.926 263.614Z" fill="#FFB1A5"/>
<path d="M183.941 259.918C183.941 259.918 177.071 262.894 173.847 258.21L156 268H185L183.941 259.918Z" fill="#2D3846"/>
<path d="M221.994 263.65L219.342 242.18L210.348 241.722L213.988 264.167L221.994 263.65Z" fill="#FFB1A5"/>
<path d="M212.478 259.917C212.478 259.917 219.348 262.893 222.572 258.208L239 268H210L212.478 259.917Z" fill="#2D3846"/>
<path d="M176.784 152.808L170 253H190L196.858 168.29L204.407 251.293L225.974 249.132L215.696 152.808H176.784Z" fill="#0F3E5E"/>
<path d="M168.221 114.309L162.791 122.127L157.442 96.9878L150.168 99.411L153.446 126.946C153.422 133.63 161.214 137.302 166.347 133.023L178.302 119.452L168.221 114.309Z" fill="#FFB1A5"/>
<path d="M157.898 90.3338C157.361 88.7246 155.576 87.9048 154.006 88.5471L149.037 90.5795C146.918 91.4466 145.957 93.9129 146.933 95.985L147.829 97.8892C148.724 99.7913 150.939 100.676 152.898 99.9139L156.054 98.6864C157.802 98.0066 158.843 96.2038 158.558 94.3502L158.014 90.8152C157.989 90.6517 157.95 90.4907 157.898 90.3338V90.3338Z" fill="#FFB1A5"/>
<path d="M145.839 97.1227L152.971 99.3472C153.465 99.4996 153.989 99.225 154.147 98.7303L158.406 85.0525C158.558 84.5585 158.284 84.0332 157.789 83.8756L150.658 81.6511C150.164 81.4987 149.639 81.7733 149.482 82.2681L145.222 95.9459C145.071 96.445 145.346 96.9703 145.839 97.1227Z" fill="#2D3846" stroke="#2D3846" stroke-width="0.406179" stroke-miterlimit="10"/>
<path d="M147.249 95.1021L152.959 96.8809C153.453 97.0333 153.978 96.7587 154.135 96.2639L157.462 85.59C157.614 85.0961 157.339 84.5708 156.845 84.4132L151.134 82.6345C150.641 82.4821 150.116 82.7566 149.958 83.2514L146.632 93.9253C146.48 94.4193 146.755 94.9497 147.249 95.1021Z" fill="#6B7F99"/>
<path d="M158.026 89.5669C157.919 88.532 156.774 87.9585 155.881 88.4937V88.4937C155.417 88.7722 155.152 89.2903 155.197 89.8298L155.658 95.3671L158.512 94.3135L158.026 89.5669Z" fill="#FFB1A5"/>
<rect x="146.632" y="83.8594" width="2.60107" height="3.62522" rx="1.30053" transform="rotate(-47.4277 146.632 83.8594)" fill="#FFB1A5"/>
<rect x="145.612" y="86.4043" width="2.60107" height="3.62522" rx="1.30053" transform="rotate(-47.4277 145.612 86.4043)" fill="#FFB1A5"/>
<rect x="144.593" y="88.9497" width="2.60107" height="3.62522" rx="1.30053" transform="rotate(-47.4277 144.593 88.9497)" fill="#FFB1A5"/>
<rect x="143.574" y="91.4956" width="2.60107" height="3.62522" rx="1.30053" transform="rotate(-47.4277 143.574 91.4956)" fill="#FFB1A5"/>
<path d="M214.186 123.633C214.186 123.633 221.1 142.664 224.3 163.633L229.578 163.633C229.578 163.633 228.79 134.249 223.765 115.301L214.186 123.633Z" fill="#FFB1A5"/>
<path d="M229.228 161.918C229.228 161.918 236.286 171.96 228.217 176.771C227.687 177.088 227.005 176.982 226.595 176.517L226.539 176.454C226.086 175.942 226.116 175.17 226.581 174.665C227.712 173.436 229.219 170.92 226.651 167.748C226.651 167.748 225.35 168.119 225.633 170.754C225.707 171.431 225.163 172.017 224.497 171.972C224.04 171.939 223.658 171.619 223.536 171.174C223.067 169.448 222.253 165.154 224.93 162.768L229.228 161.918Z" fill="#FFB1A5"/>
<path d="M212.84 96.9441C212.84 96.9441 220.032 98.4793 226.17 114.836L212.501 127.178L209.574 117.155L212.84 96.9441Z" fill="#2493DF"/>
<path d="M182.075 96.9436C181.575 96.9436 177.82 98.1195 174.536 102.345C171.253 106.572 166.869 114.416 166.869 114.416L178.075 123.944L182.575 118.444C182.575 118.444 182.575 96.9436 182.075 96.9436Z" fill="#2493DF"/>
<path d="M182.074 96.9436L181.146 104.191C181.146 104.191 178.666 111.631 179.148 113.53L176 153H216L214.812 103.953C214.812 103.953 214.735 101.729 214.574 100.444C214.408 99.1282 214.574 96.9436 212.574 96.9436H204.074H182.074Z" fill="#2493DF"/>
<path d="M203.571 97.0315V87.4173L194.576 85.9438L194.577 98.7163C194.519 100.143 195.538 99.9705 196.933 99.8945L201.672 99.6489C202.981 99.5845 203.623 98.3589 203.571 97.0315Z" fill="#FFB1A5"/>
<path d="M203.234 87.3009L194.575 93.4438V84.9438L203.234 87.3009Z" fill="#E18D81"/>
<path d="M214.426 77.9712C214.426 79.8104 212.934 81.3044 211.096 81.3044C209.258 81.3044 207.765 79.8104 207.765 77.9712C207.765 76.132 209.258 74.638 211.096 74.638C212.934 74.632 214.426 76.126 214.426 77.9712Z" fill="#FFB1A5"/>
<path d="M209.228 78.6918C209.407 78.4477 210.061 76.5728 212.155 76.8823" stroke="#2D3846" stroke-width="0.317632" stroke-miterlimit="10" stroke-linecap="round" stroke-linejoin="round"/>
<path d="M188.094 81.3044C189.933 81.3044 191.425 79.812 191.425 77.9712C191.425 76.1303 189.933 74.6379 188.094 74.6379C186.254 74.6379 184.763 76.1303 184.763 77.9712C184.763 79.812 186.254 81.3044 188.094 81.3044Z" fill="#FFB1A5"/>
<path d="M189.962 78.6918C189.784 78.4477 189.129 76.5728 187.036 76.8823" stroke="#2D3846" stroke-width="0.317632" stroke-miterlimit="10" stroke-linecap="round" stroke-linejoin="round"/>
<path d="M209.953 72.0131C209.953 76.263 209.34 79.9295 208.727 82.5306C208.127 85.0781 206.437 86.8578 204.052 88.2923L203.624 88.5483C201.078 90.078 197.854 90.1137 195.273 88.6435C192.686 87.1674 190.877 85.2269 190.324 82.4949C189.313 77.5189 189.2 72.0131 189.2 72.0131C189.2 72.0131 188.236 61.2873 199.431 61.4957C210.625 61.698 209.953 72.0131 209.953 72.0131Z" fill="#FFB1A5"/>
<path d="M189.796 76.3704C189.796 76.3704 192.157 68.7516 190.45 63.8233C190.45 63.8173 183.848 65.716 189.796 76.3704Z" fill="#2D3846"/>
<path d="M209.531 76.3704C209.531 76.3704 206.551 68.7517 208.258 63.8233C208.264 63.8173 214.426 65.3411 209.531 76.3704Z" fill="#2D3846"/>
<path d="M198.878 78.3281V79.715C198.878 80.0662 199.187 80.3281 199.52 80.2566L200.264 80.1019" stroke="#2D3846" stroke-width="0.320353" stroke-miterlimit="10" stroke-linecap="round" stroke-linejoin="round"/>
<path d="M197.867 71.9606L191.61 72.7105C191.61 72.7105 192.11 71.0558 194.667 70.7761C197.231 70.4904 197.867 71.9606 197.867 71.9606Z" fill="#2D3846"/>
<path d="M201.218 71.9594L207.476 72.7093C207.476 72.7093 206.976 71.0546 204.418 70.7749C201.861 70.4892 201.218 71.9594 201.218 71.9594Z" fill="#2D3846"/>
<path d="M195.881 82.8816H202.448C202.448 82.8816 201.931 84.578 199.165 84.578C196.851 84.578 195.881 82.8816 195.881 82.8816Z" fill="white"/>
<path d="M202.634 76.5244C202.634 76.5244 203.877 75.1792 205.221 76.5244" stroke="#2D3846" stroke-width="0.482581" stroke-miterlimit="10" stroke-linecap="round" stroke-linejoin="round"/>
<path d="M193.45 76.5244C193.45 76.5244 194.693 75.1792 196.037 76.5244" stroke="#2D3846" stroke-width="0.482581" stroke-miterlimit="10" stroke-linecap="round" stroke-linejoin="round"/>
<path d="M190.93 67.2402C190.93 67.2402 192.821 63.8296 196.218 65.7164C199.614 67.6032 202.963 69.3948 209.024 67.9128L208.221 63.8058C208.221 63.8058 199.804 54.8418 190.406 63.8058L190.93 67.2402Z" fill="#2D3846"/>
<path d="M190.402 63.8053C190.402 63.8053 190.943 57.5852 199.71 57.0436C208.484 56.5019 211.083 61.1863 211.083 61.1863L209.489 61.472C209.489 61.472 212.558 62.7934 213.355 64.0731L211.63 64.6743L213.902 66.698C213.902 66.698 206.753 69.4777 202.786 67.9896L199.502 63.0196L190.402 63.8053Z" fill="#2D3846"/>
<path d="M195.003 96.9438H189.575C189.575 96.9438 189.608 102.683 198.897 102.936C208.185 103.189 208.575 96.9438 208.575 96.9438H203.598H195.003Z" fill="#FFB1A5"/>
<rect x="156" y="268" width="29" height="2" fill="#2D3846"/>
<rect x="210" y="268" width="29" height="2" fill="#2D3846"/>
<path d="M345.907 264.181L346.189 243.443L354.749 243L353.526 264.681L345.907 264.181Z" fill="#FAAEB0"/>
<path d="M354.487 260.609C354.487 260.609 347.954 263.483 344.88 258.958L329 268H356L354.487 260.609Z" fill="#2D3846"/>
<path d="M398.36 263.726L394.109 241.92L385.76 240L390.776 262.898L398.36 263.726Z" fill="#FAAEB0"/>
<path d="M388.885 260.825C388.885 260.825 395.418 263.7 398.492 259.175L414 268.045H387L388.885 260.825Z" fill="#2D3846"/>
<path d="M348.666 156L341 253L360 254L366.774 171.377L383 252L402 248.5L384.694 156.416L348.666 156Z" fill="#2D3846"/>
<path d="M350.422 130.354C350.422 130.354 340.402 152.593 335.46 176.563L330.295 175.522C330.295 175.522 333.203 146.585 340.126 125.053L350.422 130.354Z" fill="#F7A59C"/>
<path d="M330.801 173.568C330.801 173.568 322.068 184.716 331.077 190.741C331.669 191.138 332.461 191.058 332.961 190.546L333.03 190.477C333.582 189.913 333.593 189.022 333.088 188.413C331.858 186.929 330.272 183.94 333.421 180.438C333.421 180.438 334.898 180.944 334.415 183.963C334.289 184.739 334.88 185.446 335.65 185.435C336.179 185.423 336.638 185.078 336.805 184.572C337.449 182.612 338.644 177.713 335.702 174.804L330.801 173.568Z" fill="#F7A59C"/>
<path d="M350.055 108.333C350.055 108.333 343.304 110.277 337.909 124.041L350.974 132.039L353.755 124.634L350.055 108.333Z" fill="#40BF9C"/>
<path d="M375.273 103.257L419.456 67.0503L425.782 69.3059C427.396 67.7306 400.904 97.0933 381.903 112.289L375.273 103.257Z" fill="#FFB1A5"/>
<path d="M391.508 110.277L386.82 93.5461L375.869 100.388C373.456 101.486 372.49 102.163 372.49 102.163L371.594 104.602L375.271 105.189L378.857 124.887L391.508 110.277Z" fill="#40BF9C"/>
<path d="M373.612 101.602L378.703 107.518C380.449 108.168 382.656 111.928 382.196 113.762L386.137 157.222L346.689 161.839L349.268 110.059C349.268 109.172 349.493 108.894 350.054 108.333L357.907 104.407L370.246 102.163L373.612 101.602Z" fill="#40BF9C"/>
<path d="M357.907 105.528V93.7495L368.003 94.3104L368.003 103.285C368.061 104.566 366.3 106.097 364.921 106.029L360.256 105.808C358.969 105.75 357.855 106.725 357.907 105.528Z" fill="#FFB1A5"/>
<path d="M366.62 95.8738L357.908 101.041V93.7498L366.62 95.8738Z" fill="#EEA296"/>
<path d="M377.101 85.8167C377.101 87.5933 375.682 89.0364 373.929 89.0364C372.177 89.0364 370.758 87.5933 370.758 85.8167C370.758 84.0401 372.177 82.5969 373.929 82.5969C375.682 82.5969 377.101 84.0401 377.101 85.8167Z" fill="#FFB1A5"/>
<path d="M372.16 86.5191C372.333 86.2834 372.953 84.4723 374.947 84.7713" stroke="#2D3846" stroke-width="0.315195" stroke-miterlimit="10" stroke-linecap="round" stroke-linejoin="round"/>
<path d="M348.887 85.8167C348.887 87.5933 350.306 89.0364 352.058 89.0364C353.811 89.0364 355.23 87.5933 355.23 85.8167C355.23 84.0401 353.811 82.5969 352.058 82.5969C350.306 82.5969 348.887 84.0401 348.887 85.8167Z" fill="#FFB1A5"/>
<path d="M353.832 86.5191C353.66 86.2834 353.039 84.4723 351.046 84.7713" stroke="#2D3846" stroke-width="0.315195" stroke-miterlimit="10" stroke-linecap="round" stroke-linejoin="round"/>
<path d="M372.855 80.0627C372.855 84.1678 372.269 87.7095 371.689 90.222C371.12 92.6828 369.511 94.4019 367.242 95.7876L366.834 96.0348C364.409 97.5124 361.347 97.5469 358.888 96.1268C356.429 94.7009 354.705 92.8266 354.176 90.1875C353.211 85.381 353.108 80.0627 353.108 80.0627C353.108 80.0627 352.189 69.7021 362.841 69.9033C373.487 70.1045 372.855 80.0627 372.855 80.0627Z" fill="#FFB1A5"/>
<path d="M353.673 84.2718C353.673 84.2718 355.919 76.9124 354.293 72.1519C354.293 72.1519 349.214 74.7104 353.673 84.2718Z" fill="#2D3846"/>
<path d="M372.453 84.2718C372.453 84.2718 369.614 76.9124 371.246 72.1519C371.24 72.1519 376.354 74.1239 372.453 84.2718Z" fill="#2D3846"/>
<path d="M353.551 73.2501C353.551 73.2501 367.627 80.5922 373.086 74.7737C373.086 74.7737 377.556 70.2029 372.637 66.6612C367.719 63.1252 356.435 69.3462 356.435 69.3462C356.435 69.3462 353.907 69.9556 353.551 73.2501Z" fill="#2D3846"/>
<path d="M353.548 73.2501C353.548 73.2501 350.923 68.5182 358.398 66.1897C358.398 66.1897 360.213 68.087 357.61 70.5766C355.008 73.0719 353.548 73.2501 353.548 73.2501Z" fill="#2D3846"/>
<path d="M359.245 84.272C359.245 84.8182 358.808 85.2667 358.262 85.2667C357.722 85.2667 357.28 84.824 357.28 84.272C357.28 83.7258 357.722 83.2773 358.262 83.2773C358.802 83.2773 359.245 83.7258 359.245 84.272Z" fill="#2D3846"/>
<path d="M367.352 85.2662C367.894 85.2662 368.334 84.8209 368.334 84.2715C368.334 83.7222 367.894 83.2769 367.352 83.2769C366.809 83.2769 366.369 83.7222 366.369 84.2715C366.369 84.8209 366.809 85.2662 367.352 85.2662Z" fill="#2D3846"/>
<path d="M362.313 86.1636V87.5032C362.313 87.8424 362.612 88.0954 362.928 88.0264L363.635 87.8769" stroke="#2D3846" stroke-width="0.317916" stroke-miterlimit="10" stroke-linecap="round" stroke-linejoin="round"/>
<path d="M361.353 81.1556L355.401 81.8801C355.401 81.8801 355.878 80.2817 358.308 80.0115C360.744 79.7297 361.353 81.1556 361.353 81.1556Z" fill="#2D3846"/>
<path d="M364.538 81.1556L370.49 81.8801C370.49 81.8801 370.013 80.2817 367.583 80.0115C365.147 79.7297 364.538 81.1556 364.538 81.1556Z" fill="#2D3846"/>
<path d="M359.466 89.6013H365.712C365.712 89.6013 365.218 91.2399 362.586 91.2399C360.386 91.2342 359.466 89.6013 359.466 89.6013Z" fill="white"/>
<path d="M359.029 103.846L354.542 106.089C354.542 106.089 356.153 111.232 363.48 109.502C370.808 107.772 370.247 102.163 370.247 102.163L359.029 103.846Z" fill="#FFB1A5"/>
<path d="M420.141 59.9435C421.039 58.5732 422.909 58.2484 424.217 59.2358L428.24 62.2738C430.068 63.6538 430.366 66.2836 428.894 68.0377L427.761 69.3876C426.409 70.9977 424.042 71.287 422.343 70.0497L419.889 68.2632C418.373 67.1594 417.827 65.1503 418.577 63.4312L419.913 60.3644C419.977 60.2179 420.053 60.0772 420.141 59.9435V59.9435Z" fill="#FFB1A5"/>
<path d="M429.728 69.2615L422.519 69.5784C422.02 69.5989 421.598 69.2129 421.573 68.7119L420.972 54.8871C420.951 54.3882 421.337 53.9654 421.838 53.9403L429.047 53.6234C429.546 53.603 429.968 53.989 429.993 54.4899L430.595 68.3148C430.613 68.8182 430.227 69.241 429.728 69.2615Z" fill="#2D3846" stroke="#2D3846" stroke-width="0.406179" stroke-miterlimit="10"/>
<path d="M428.912 67.0263L423.14 67.2778C422.642 67.2983 422.219 66.9123 422.194 66.4113L421.723 55.6221C421.703 55.1232 422.089 54.7004 422.589 54.6753L428.361 54.4239C428.86 54.4034 429.282 54.7894 429.307 55.2903L429.779 66.0796C429.799 66.5785 429.411 67.0059 428.912 67.0263Z" fill="#6B7F99"/>
<path d="M420.213 59.1964C420.568 58.2562 421.78 58.0034 422.481 58.7234V58.7234C422.845 59.0981 422.965 59.6475 422.79 60.1402L420.992 65.1975L418.587 63.509L420.213 59.1964Z" fill="#FFB1A5"/>
<rect width="2.51251" height="3.50179" rx="1.25625" transform="matrix(-0.465855 -0.884861 -0.884861 0.465855 432.65 57.3828)" fill="#FFB1A5"/>
<rect width="2.51251" height="3.50179" rx="1.25625" transform="matrix(-0.465855 -0.884861 -0.884861 0.465855 432.972 60.0115)" fill="#FFB1A5"/>
<rect width="2.51251" height="3.50179" rx="1.25625" transform="matrix(-0.465855 -0.884861 -0.884861 0.465855 433.295 62.6396)" fill="#FFB1A5"/>
<rect width="2.51251" height="3.50179" rx="1.25625" transform="matrix(-0.465855 -0.884861 -0.884861 0.465855 433.621 65.2683)" fill="#FFB1A5"/>
<rect x="329" y="268" width="27" height="2" fill="#2D3846"/>
<rect x="387" y="268" width="27" height="2" fill="#2D3846"/>
</svg>
